<?xml version="1.0" encoding="utf-8"?>
<!-- Generator: Adobe Illustrator 24.0.3, SVG Export Plug-In . SVG Version: 6.00 Build 0)  -->
<svg version="1.1" id="图层_1" xmlns="http://www.w3.org/2000/svg" xmlns:xlink="http://www.w3.org/1999/xlink" x="0px" y="0px"
	 viewBox="0 0 230.7 67.3" style="enable-background:new 0 0 230.7 67.3;" xml:space="preserve">
<style type="text/css">
	.st0{fill:#1C3BB8;}
	.st1{fill:#1D63ED;}
	.st2{fill:#3180FF;}
	.st3{fill:#1A54E5;}
	.st4{fill:#226CFF;}
	.st5{fill:#FFFFFF;}
</style>
<g>
	<g>
		<polygon class="st0" points="81.1,67.3 59.6,67.3 59.6,45.7 81.1,45.7 		"/>
		<polygon class="st1" points="59.6,67.3 38,67.3 38,45.7 59.6,45.7 		"/>
		<polygon class="st2" points="38,67.3 16.5,67.3 16.5,45.7 38,45.7 		"/>
		<rect x="59.6" y="24.1" class="st1" width="21.6" height="21.6"/>
		<polygon class="st2" points="81.1,24.1 59.6,24.2 59.6,2.6 81.1,2.6 		"/>
		<polygon class="st2" points="38,38.7 16.4,38.7 16.4,17.2 38,17.2 		"/>
		<polygon class="st0" points="26,9.9 16.1,9.9 16.2,0 26,0 		"/>
		<polygon class="st3" points="5.9,5.9 0,5.9 0,0 5.9,0 		"/>
		<rect x="3.6" y="19.1" class="st4" width="3.4" height="3.4"/>
	</g>
	<g>
		<g>
			<path class="st5" d="M121.2,35.7v1.8H91.2v-1.8H121.2z M101.5,9.1c-2.3,4.7-4.6,8.4-6.8,11c2.1-0.1,4.2-0.4,6.5-0.7
				c0.7-1.3,1.5-2.6,2.3-4l1.7,0.6c-3.2,5.9-6.4,10.3-9.5,13.3c3.5-0.3,6.8-0.8,9.8-1.4l0.3,1.7c-3.8,0.7-8.1,1.2-12.9,1.5l-0.4-1.7
				c2.2-1.2,4.8-3.9,7.5-8.3c-2.4,0.3-4.9,0.6-7.2,0.8l-0.4-1.6c0.3-0.1,0.5-0.4,0.8-0.7c2.5-3.2,4.7-6.9,6.6-11.2L101.5,9.1z
				 M115.9,9.1c-2.3,4.7-4.6,8.4-6.8,11c2.2-0.2,4.4-0.4,6.5-0.7c0.7-1.2,1.5-2.5,2.2-3.9l1.7,0.6c-3.1,5.8-6.3,10.2-9.3,13.1
				c3.6-0.3,7-0.7,10.1-1.3l0.3,1.7c-3.9,0.6-8.2,1.1-13.1,1.4l-0.3-1.7c2.2-1.2,4.7-3.9,7.4-8.2c-2.5,0.3-5,0.6-7.3,0.8l-0.4-1.7
				c0.3-0.1,0.5-0.3,0.8-0.7c2.5-3.2,4.7-6.9,6.6-11.2L115.9,9.1z"/>
			<path class="st5" d="M139,9.5v10.2h-3.5v6h3.8v1.8h-3.8v7.1c1.6-0.5,3.1-1.1,4.6-1.6v1.8c-3.5,1.3-7.7,2.6-12.4,3.7l-0.5-1.8
				c0.6-0.1,1.3-0.3,1.9-0.4V23.6h1.7v12.3c1-0.3,2-0.5,3-0.8V19.7H129V9.5H139z M137.2,11.3h-6.5v6.7h6.5V11.3z M147.7,8.2
				c-0.3,1-0.6,1.9-1.1,2.8h8.8v1.4c-1.3,2.9-3.1,5.5-5.4,7.8c2.3,2,5.2,3.5,8.5,4.6l-1.1,1.5c-3.5-1.1-6.4-2.8-8.7-4.9
				c-2.3,2-5.1,3.6-8.4,5l-1.2-1.5c3.2-1.4,6-3,8.3-4.8c-1.4-1.5-2.5-3.1-3.5-4.9c-1,1.1-2,2.2-3.2,3.1l-1.1-1.4
				c3.1-2.4,5.1-5.5,6.2-9L147.7,8.2z M155.4,38.9h-1.8v-1.6h-9.5v1.6h-1.8V26.5h13V38.9z M153.6,35.6v-7.3h-9.5v7.3H153.6z
				 M148.7,19c2-1.9,3.5-4,4.7-6.3h-7.6c-0.2,0.4-0.5,0.7-0.7,1.1C146,15.7,147.2,17.5,148.7,19z"/>
			<path class="st5" d="M181.6,11.8h12.5v1.8h-25.4v7.9c-0.1,7.4-1.3,13.4-3.6,17.8l-1.5-1.4c2.1-3.9,3.2-9.4,3.3-16.5v-9.7h12.8
				c-0.6-1.4-1.3-2.8-2-4l2-0.3C180.3,8.7,181,10.2,181.6,11.8z"/>
			<path class="st5" d="M230.7,9.6v1.8h-10.4v5.8h8.4v21.6h-1.8v-1.7h-22.3v1.7h-1.8V17.3h8.2v-5.8h-10.3V9.6H230.7z M226.8,35.4
				v-5.8h-5.3c-2,0-3-1-3-3V19h-5.8V20c-0.1,5.3-2,9.2-5.7,11.6l-1.4-1.2c3.5-2.2,5.2-5.6,5.3-10.4V19h-6.4v16.4H226.8z M212.7,17.3
				h5.8v-5.8h-5.8V17.3z M220.3,26.2c0,1.1,0.5,1.7,1.7,1.7h4.9V19h-6.5V26.2z"/>
		</g>
		<g>
			<path class="st5" d="M99.7,47.5c0.8,0.7,1.3,1.7,1.4,3H100c-0.1-1-0.5-1.8-1.1-2.3c-0.6-0.5-1.5-0.8-2.6-0.8
				c-1,0-1.9,0.2-2.4,0.5c-0.7,0.4-1,1-1,1.8c0,0.7,0.4,1.3,1.2,1.7c0.4,0.2,1.2,0.5,2.5,0.8c1.6,0.5,2.7,0.9,3.3,1.2
				c1.1,0.6,1.6,1.5,1.6,2.7c0,1.1-0.5,2-1.4,2.6c-0.9,0.6-2.1,0.9-3.5,0.9c-1.5,0-2.6-0.3-3.5-1c-1-0.8-1.5-1.9-1.6-3.5h1.1
				c0.1,1.2,0.5,2.1,1.3,2.7c0.6,0.5,1.6,0.8,2.8,0.8c1.1,0,2.1-0.2,2.8-0.7c0.7-0.5,1-1.1,1-1.8c0-0.9-0.5-1.6-1.3-2.1
				c-0.4-0.3-1.4-0.6-2.8-1c-1.5-0.4-2.5-0.8-3-1c-1-0.6-1.5-1.4-1.5-2.4c0-1.1,0.5-2,1.4-2.6c0.8-0.6,1.9-0.8,3.2-0.8
				C97.7,46.5,98.9,46.8,99.7,47.5z"/>
			<path class="st5" d="M112,46.7v12.9h-1.1V46.7H112z"/>
			<path class="st5" d="M123.4,46.7v11.9h7.7v1h-8.8V46.7H123.4z"/>
			<path class="st5" d="M150.3,46.7l-5.9,5.5l6.7,7.4h-1.5l-6-6.7l-2.3,2.1v4.5h-1.1V46.7h1.1v7.1l7.5-7.1H150.3z"/>
			<path class="st5" d="M165.3,46.7c1.3,0,2.3,0.3,3,0.9c0.7,0.6,1.1,1.5,1.1,2.6c0,0.8-0.2,1.4-0.6,2c-0.4,0.6-1,1-1.8,1.1v0
				c1.3,0.3,2,1.1,2.2,2.4l0.2,1.9c0.1,0.8,0.3,1.4,0.6,1.9h-1.2c-0.3-0.4-0.4-1-0.5-1.7l-0.2-1.8c-0.1-0.8-0.4-1.4-0.9-1.7
				c-0.5-0.3-1.1-0.5-2-0.5H161v5.7h-1.1V46.7H165.3z M161,52.9h4.2c1,0,1.8-0.3,2.3-0.7c0.5-0.5,0.8-1.1,0.8-1.9
				c0-0.9-0.3-1.5-0.7-1.9c-0.5-0.5-1.3-0.7-2.4-0.7H161V52.9z"/>
			<path class="st5" d="M189.3,48.4c1,1.2,1.6,2.8,1.6,4.7c0,1.9-0.5,3.5-1.6,4.8c-1.1,1.3-2.6,1.9-4.5,1.9c-1.9,0-3.4-0.6-4.5-1.9
				c-1-1.2-1.6-2.8-1.6-4.7c0-1.9,0.5-3.5,1.6-4.7c1.1-1.3,2.6-1.9,4.5-1.9C186.7,46.5,188.2,47.1,189.3,48.4z M181.1,49.1
				c-0.9,1-1.3,2.4-1.3,4.1c0,1.7,0.4,3,1.3,4.1c0.9,1.1,2.1,1.6,3.7,1.6s2.8-0.5,3.7-1.6c0.9-1,1.3-2.4,1.3-4.1
				c0-1.7-0.4-3.1-1.3-4.1c-0.9-1.1-2.1-1.6-3.7-1.6C183.3,47.5,182,48,181.1,49.1z"/>
			<path class="st5" d="M205.5,46.7l5.1,12.9h-1.2l-1.5-3.8h-6.2l-1.5,3.8h-1.2l5.1-12.9H205.5z M207.6,54.8l-2.7-6.9h-0.1l-2.7,6.9
				H207.6z"/>
			<path class="st5" d="M224,46.7c2,0,3.5,0.6,4.5,1.8c0.9,1.1,1.4,2.6,1.4,4.6c0,2-0.5,3.5-1.5,4.6c-1.1,1.2-2.6,1.8-4.6,1.8h-4.3
				V46.7H224z M220.5,58.6h3.1c1.7,0,3-0.5,3.9-1.5c0.9-0.9,1.3-2.3,1.3-4c0-1.8-0.4-3.1-1.1-4c-0.8-1-2.1-1.4-3.9-1.4h-3.3V58.6z"
				/>
		</g>
	</g>
</g>
</svg>
